<svg width="306" height="283" viewBox="0 0 306 283" fill="none" xmlns="http://www.w3.org/2000/svg">
<path d="M198.219 98.8441C207.537 96.8443 216.923 103.775 219.185 114.325C221.444 124.874 215.728 135.041 206.408 137.038C197.09 139.036 187.705 132.106 185.448 121.557C183.183 111.007 188.902 100.841 198.219 98.8441Z" fill="black" fill-opacity="0.03"/>
<path d="M107.447 98.8441C116.764 100.841 122.483 111.007 120.218 121.557C117.961 132.107 108.576 139.036 99.2587 137.038C89.9402 135.041 84.222 124.872 86.4811 114.325C88.7439 103.775 98.1299 96.8443 107.447 98.8441Z" fill="black" fill-opacity="0.03"/>
<path d="M152.833 173.37C169.192 173.37 182.453 180.715 182.453 189.772C182.453 196.431 175.274 202.149 164.982 204.719C162.166 208.343 157.775 210.682 152.833 210.682C147.886 210.682 143.5 208.343 140.684 204.719C130.387 202.149 123.213 196.43 123.213 189.772C123.213 180.715 136.475 173.37 152.833 173.37Z" fill="black" fill-opacity="0.03"/>
<path d="M52.9368 178.996C46.3685 177.173 31.5146 172.219 19.2047 162.1C19.1075 162.026 19.0155 161.948 18.9248 161.868C8.51627 153.217 -3.05176e-05 140.838 -3.05176e-05 123.48C-3.05176e-05 97.2473 6.45297 73.1577 18.663 53.8195C31.0908 34.1352 48.8724 20.3181 70.0861 13.8625C112.152 1.06016 133.229 0 152.832 0C172.435 0 193.512 1.06016 235.578 13.8625C256.791 20.3181 274.573 34.1365 287.001 53.8195C299.211 73.1577 305.664 97.2473 305.664 123.48C305.664 161.46 264.918 175.612 252.727 178.996C251.224 185.484 246.91 200.174 236.275 214.958C233.806 218.39 230.893 221.947 227.481 225.458L241.011 275.701C241.756 278.465 240.118 281.31 237.353 282.054C236.902 282.176 236.449 282.234 236.003 282.234C233.717 282.234 231.624 280.71 231 278.396L218.847 233.268C204.26 244.85 183.098 254.276 152.832 254.276C147.118 254.276 141.729 253.939 136.647 253.317C136.178 259.518 134.162 269.325 127.043 279.936C126.044 281.427 124.403 282.231 122.734 282.231C121.741 282.231 120.737 281.948 119.85 281.353C117.472 279.759 116.837 276.538 118.432 274.158C124.824 264.627 126.188 256.158 126.391 251.589C109.645 247.987 96.7159 241.127 86.8167 233.267L74.6637 278.395C74.0416 280.709 71.9472 282.233 69.661 282.233C69.2151 282.233 68.7615 282.174 68.3105 282.053C65.546 281.309 63.9078 278.463 64.6531 275.699L78.1824 225.457C74.7713 221.946 71.8578 218.39 69.3888 214.956C58.7548 200.174 54.4402 185.484 52.9368 178.996ZM52.1812 90.0413C50.1205 92.2743 47.8162 94.4063 45.1878 96.3841C22.6237 113.356 25.821 146.423 27.0678 154.897C35.7448 161.703 45.8293 165.79 52.1799 167.892V90.0413H52.1812ZM10.3696 123.48C10.3696 130.843 12.4498 137.13 15.73 142.487C15.6225 126.6 19.2332 102.933 38.9577 88.0972C60.9166 71.583 56.9662 40.6361 55.2736 31.674C27.1689 48.4357 10.3696 81.9293 10.3696 123.48ZM295.297 123.48C295.297 82.2909 278.786 49.0228 251.122 32.1185C249.37 41.6133 245.842 71.7891 267.529 88.0985C287.046 102.776 290.793 125.616 290.763 141.125C293.563 136.074 295.297 130.229 295.297 123.48ZM279.305 154.394C280.434 147.656 284.708 113.992 261.296 96.3854C258.323 94.1484 255.736 91.7222 253.484 89.1664V167.908C260.008 165.76 270.476 161.532 279.305 154.394ZM152.833 243.906C185.738 243.906 210.898 232.244 227.615 209.242C239.284 193.186 242.654 176.835 243.117 174.324V72.1896C243.117 71.898 243.156 71.6167 243.202 71.3381C236.272 51.541 240.643 30.9702 241.568 27.1352C238.658 25.8599 235.662 24.7285 232.561 23.7837C191.857 11.3948 171.622 10.3683 152.833 10.3683C134.044 10.3683 113.809 11.3948 73.1058 23.7837C70.2675 24.6481 67.516 25.6707 64.8397 26.8138C65.5862 29.796 70.7574 52.3575 62.5496 73.3456V174.322C63.0175 176.858 66.3898 193.197 78.0515 209.242C94.7679 232.244 119.928 243.906 152.833 243.906Z" fill="black" fill-opacity="0.03"/>
</svg>
