<svg viewBox="0 0 247 52" fill="none" xmlns="http://www.w3.org/2000/svg">
<path d="M38.49 49.72C37.9767 49.86 37.16 50 36.04 50.14C34.9667 50.28 33.8933 50.35 32.82 50.35C31.7467 50.35 30.79 50.2567 29.95 50.07C29.1567 49.93 28.48 49.65 27.92 49.23C27.36 48.81 26.94 48.2267 26.66 47.48C26.38 46.7333 26.24 45.7533 26.24 44.54V33.62H12.8V49.72C12.2867 49.86 11.47 50 10.35 50.14C9.27667 50.28 8.20333 50.35 7.13 50.35C6.05667 50.35 5.1 50.2567 4.26 50.07C3.46667 49.93 2.79 49.65 2.23 49.23C1.67 48.81 1.25 48.2267 0.97 47.48C0.69 46.7333 0.55 45.7533 0.55 44.54V7.58C1.06333 7.48666 1.88 7.37 3 7.23C4.12 7.04333 5.19333 6.95 6.22 6.95C7.29333 6.95 8.22667 7.04333 9.02 7.23C9.86 7.37 10.56 7.65 11.12 8.07C11.68 8.49 12.1 9.07333 12.38 9.82C12.66 10.5667 12.8 11.5467 12.8 12.76V23.96H26.24V7.58C26.7533 7.48666 27.57 7.37 28.69 7.23C29.81 7.04333 30.8833 6.95 31.91 6.95C32.9833 6.95 33.9167 7.04333 34.71 7.23C35.55 7.37 36.25 7.65 36.81 8.07C37.37 8.49 37.79 9.07333 38.07 9.82C38.35 10.5667 38.49 11.5467 38.49 12.76V49.72ZM61.2313 42.44C62.0246 42.44 62.8879 42.37 63.8213 42.23C64.8013 42.0433 65.5246 41.81 65.9913 41.53V35.93L60.9513 36.35C59.6446 36.4433 58.5713 36.7233 57.7313 37.19C56.8913 37.6567 56.4713 38.3567 56.4713 39.29C56.4713 40.2233 56.8213 40.9933 57.5213 41.6C58.2679 42.16 59.5046 42.44 61.2313 42.44ZM60.6713 14.93C63.1913 14.93 65.4779 15.1867 67.5313 15.7C69.6313 16.2133 71.4046 17.0067 72.8513 18.08C74.3446 19.1067 75.4879 20.4367 76.2813 22.07C77.0746 23.6567 77.4713 25.5467 77.4713 27.74V43.42C77.4713 44.6333 77.1213 45.6367 76.4213 46.43C75.7679 47.1767 74.9746 47.83 74.0413 48.39C71.0079 50.21 66.7379 51.12 61.2313 51.12C58.7579 51.12 56.5179 50.8867 54.5113 50.42C52.5513 49.9533 50.8479 49.2533 49.4013 48.32C48.0013 47.3867 46.9046 46.1967 46.1113 44.75C45.3646 43.3033 44.9913 41.6233 44.9913 39.71C44.9913 36.49 45.9479 34.0167 47.8613 32.29C49.7746 30.5633 52.7379 29.49 56.7513 29.07L65.9213 28.09V27.6C65.9213 26.2467 65.3146 25.29 64.1013 24.73C62.9346 24.1233 61.2313 23.82 58.9913 23.82C57.2179 23.82 55.4913 24.0067 53.8113 24.38C52.1313 24.7533 50.6146 25.22 49.2613 25.78C48.6546 25.36 48.1413 24.73 47.7213 23.89C47.3013 23.0033 47.0913 22.0933 47.0913 21.16C47.0913 19.9467 47.3713 18.99 47.9313 18.29C48.5379 17.5433 49.4479 16.9133 50.6613 16.4C52.0146 15.8867 53.6013 15.5133 55.4213 15.28C57.2879 15.0467 59.0379 14.93 60.6713 14.93ZM84.8874 4.43C85.3541 4.29 86.1008 4.15 87.1274 4.01C88.1541 3.82333 89.2041 3.73 90.2774 3.73C91.3041 3.73 92.2141 3.8 93.0074 3.94C93.8474 4.08 94.5474 4.36 95.1074 4.78C95.6674 5.2 96.0874 5.78333 96.3674 6.53C96.6474 7.23 96.7874 8.16333 96.7874 9.33V16.19C97.9541 15.7233 99.0508 15.3967 100.077 15.21C101.151 15.0233 102.317 14.93 103.577 14.93C105.817 14.93 107.941 15.3267 109.947 16.12C111.954 16.9133 113.727 18.08 115.267 19.62C116.807 21.1133 118.021 22.98 118.907 25.22C119.794 27.46 120.237 30.05 120.237 32.99C120.237 36.0233 119.771 38.6833 118.837 40.97C117.951 43.21 116.691 45.0767 115.057 46.57C113.424 48.0633 111.417 49.2067 109.037 50C106.704 50.7467 104.114 51.12 101.267 51.12C98.1874 51.12 95.5741 50.7467 93.4274 50C91.2808 49.3 89.4608 48.4133 87.9674 47.34C85.9141 45.8933 84.8874 44.0267 84.8874 41.74V4.43ZM101.267 41.74C103.414 41.74 105.071 41.0167 106.237 39.57C107.451 38.0767 108.057 35.8833 108.057 32.99C108.057 30.05 107.451 27.8567 106.237 26.41C105.024 24.9633 103.391 24.24 101.337 24.24C100.404 24.24 99.5874 24.3333 98.8874 24.52C98.2341 24.7067 97.5108 24.9867 96.7174 25.36V40.62C97.2308 40.9467 97.8374 41.2267 98.5374 41.46C99.2841 41.6467 100.194 41.74 101.267 41.74ZM125.756 6.53C125.756 4.75666 126.34 3.26333 127.506 2.05C128.72 0.836664 130.306 0.229998 132.266 0.229998C134.226 0.229998 135.79 0.836664 136.956 2.05C138.17 3.26333 138.776 4.75666 138.776 6.53C138.776 8.30333 138.17 9.79667 136.956 11.01C135.79 12.2233 134.226 12.83 132.266 12.83C130.306 12.83 128.72 12.2233 127.506 11.01C126.34 9.79667 125.756 8.30333 125.756 6.53ZM138.216 49.93C137.703 50.0233 136.933 50.14 135.906 50.28C134.926 50.4667 133.923 50.56 132.896 50.56C131.87 50.56 130.936 50.49 130.096 50.35C129.303 50.21 128.626 49.93 128.066 49.51C127.506 49.09 127.063 48.53 126.736 47.83C126.456 47.0833 126.316 46.1267 126.316 44.96V16.47C126.83 16.3767 127.576 16.26 128.556 16.12C129.583 15.9333 130.61 15.84 131.636 15.84C132.663 15.84 133.573 15.91 134.366 16.05C135.206 16.19 135.906 16.47 136.466 16.89C137.026 17.31 137.446 17.8933 137.726 18.64C138.053 19.34 138.216 20.2733 138.216 21.44V49.93Z" fill="#F98B3C"/>
<path d="M162.592 27.25C164.552 27.25 166.046 26.8067 167.072 25.92C168.146 24.9867 168.682 23.5867 168.682 21.72C168.682 19.9467 168.122 18.5933 167.002 17.66C165.929 16.68 164.342 16.19 162.242 16.19C161.496 16.19 160.866 16.2133 160.352 16.26C159.886 16.26 159.396 16.3067 158.882 16.4V27.25H162.592ZM158.952 49.72C158.439 49.86 157.622 50 156.502 50.14C155.429 50.28 154.356 50.35 153.282 50.35C152.209 50.35 151.252 50.2567 150.412 50.07C149.619 49.93 148.942 49.65 148.382 49.23C147.822 48.81 147.402 48.2267 147.122 47.48C146.842 46.7333 146.702 45.7533 146.702 44.54V11.57C146.702 10.59 146.959 9.84333 147.472 9.33C148.032 8.77 148.779 8.32666 149.712 8C151.299 7.44 153.096 7.04333 155.102 6.81C157.156 6.53 159.209 6.39 161.262 6.39C167.702 6.39 172.626 7.76667 176.032 10.52C179.439 13.2733 181.142 17.0067 181.142 21.72C181.142 24.0067 180.769 26.0833 180.022 27.95C179.322 29.77 178.249 31.3567 176.802 32.71C175.402 34.0167 173.606 35.0433 171.412 35.79C169.266 36.49 166.769 36.84 163.922 36.84H158.952V49.72ZM203.431 51.12C200.677 51.12 198.111 50.7467 195.731 50C193.397 49.2067 191.344 48.04 189.571 46.5C187.844 44.96 186.467 43.0233 185.441 40.69C184.461 38.3567 183.971 35.6267 183.971 32.5C183.971 29.42 184.461 26.7833 185.441 24.59C186.467 22.35 187.797 20.53 189.431 19.13C191.064 17.6833 192.931 16.6333 195.031 15.98C197.131 15.28 199.277 14.93 201.471 14.93C203.944 14.93 206.184 15.3033 208.191 16.05C210.244 16.7967 211.994 17.8233 213.441 19.13C214.934 20.4367 216.077 22 216.871 23.82C217.711 25.64 218.131 27.6233 218.131 29.77C218.131 31.3567 217.687 32.57 216.801 33.41C215.914 34.25 214.677 34.7867 213.091 35.02L195.801 37.61C196.314 39.15 197.364 40.3167 198.951 41.11C200.537 41.8567 202.357 42.23 204.411 42.23C206.324 42.23 208.121 41.9967 209.801 41.53C211.527 41.0167 212.927 40.4333 214.001 39.78C214.747 40.2467 215.377 40.9 215.891 41.74C216.404 42.58 216.661 43.4667 216.661 44.4C216.661 46.5 215.681 48.0633 213.721 49.09C212.227 49.8833 210.547 50.42 208.681 50.7C206.814 50.98 205.064 51.12 203.431 51.12ZM201.471 23.61C200.351 23.61 199.371 23.7967 198.531 24.17C197.737 24.5433 197.084 25.0333 196.571 25.64C196.057 26.2 195.661 26.8533 195.381 27.6C195.147 28.3 195.007 29.0233 194.961 29.77L206.931 27.81C206.791 26.8767 206.277 25.9433 205.391 25.01C204.504 24.0767 203.197 23.61 201.471 23.61ZM235.759 38.31C235.759 39.5233 236.132 40.3867 236.879 40.9C237.672 41.4133 238.769 41.67 240.169 41.67C240.869 41.67 241.592 41.6233 242.339 41.53C243.085 41.39 243.739 41.2267 244.299 41.04C244.719 41.5533 245.069 42.1367 245.349 42.79C245.675 43.3967 245.839 44.1433 245.839 45.03C245.839 46.8033 245.162 48.25 243.809 49.37C242.502 50.49 240.169 51.05 236.809 51.05C232.702 51.05 229.529 50.1167 227.289 48.25C225.095 46.3833 223.999 43.35 223.999 39.15V9.19C224.512 9.05 225.235 8.91 226.169 8.77C227.149 8.58333 228.175 8.49 229.249 8.49C231.302 8.49 232.889 8.86333 234.009 9.61C235.175 10.31 235.759 11.8267 235.759 14.16V18.64H244.929C245.209 19.1533 245.465 19.8067 245.699 20.6C245.979 21.3467 246.119 22.1867 246.119 23.12C246.119 24.7533 245.745 25.9433 244.999 26.69C244.299 27.39 243.342 27.74 242.129 27.74H235.759V38.31Z" fill="#DD1B1B"/>
</svg>
